<?xml version="1.0" encoding="UTF-8"?>
<svg width="140px" height="45px" viewBox="0 0 140 45" version="1.1" xmlns="http://www.w3.org/2000/svg" xmlns:xlink="http://www.w3.org/1999/xlink">
    <!-- Generator: Sketch 50 (54983) - http://www.bohemiancoding.com/sketch -->
    <title>appstore</title>
    <desc>Created with Sketch.</desc>
    <defs></defs>
    <g id="Page-1" stroke="none" stroke-width="1" fill="none" fill-rule="evenodd">
        <g id="appstore">
            <rect id="Rectangle-8" fill="#3F3F3F" x="0" y="0" width="140" height="45" rx="3"></rect>
            <path d="M28.5974778,14.5824225 C31.4568541,14.5824225 33.2853071,17.3853537 33.2853071,17.3853537 C33.2853071,17.3853537 30.4960698,18.9188236 30.4960698,22.2491549 C30.4960698,26.2018801 34,27.3516741 34,27.3516741 C34,27.3516741 31.234344,34 28.1288762,34 C26.3826553,34 26.2659584,32.9822103 23.9453226,32.9822103 C21.9300337,32.9822103 21.2504103,34 19.7152112,34 C16.7850911,34 13,27.5194552 13,22.2491549 C13,16.7746799 16.8322536,14.5824225 19.2345167,14.5824225 C21.3441306,14.5824225 22.2226829,15.8401638 23.9217414,15.8401638 C25.3517319,15.8401638 26.4769802,14.5824225 28.5974778,14.5824225 Z M28.1058996,9 C28.5273387,11.6832638 26.1250756,15.0018752 23.2542109,14.8939278 C22.8321672,11.4797059 25.9261467,9.18011794 28.1058996,9 Z" id="Combined-Shape" fill="#FFFFFF"></path>
            <path d="M55.2512187,29.5707814 L50.9077569,29.5707814 L49.6356132,33.412231 L48,33.412231 L52.161727,21.1993205 L54.0699424,21.1993205 L58.2498429,33.412231 L56.5597092,33.412231 L55.2512187,29.5707814 Z M51.2348795,28.3386183 L54.924096,28.3386183 L53.7246463,24.8233296 C53.4520441,24.0260476 53.2703093,23.3012458 53.0885745,22.594564 L53.0522275,22.594564 C52.8704927,23.3193658 52.6705844,24.0622877 52.4343292,24.8052095 L51.2348795,28.3386183 Z M59.2965016,37 L59.2965016,27.5050963 C59.2965016,26.3816535 59.2601546,25.4756512 59.2238077,24.6421291 L60.6595126,24.6421291 L60.7322066,26.1460929 L60.7685535,26.1460929 C61.4227988,25.0770102 62.4586872,24.4428086 63.8943921,24.4428086 C66.0206893,24.4428086 67.6199556,26.2366931 67.6199556,28.9003398 C67.6199556,32.0532276 65.6935667,33.6115515 63.6217899,33.6115515 C62.4586872,33.6115515 61.4409723,33.1041903 60.9139414,32.2344281 L60.8775944,32.2344281 L60.8775944,37 L59.2965016,37 Z M60.8775944,28.3386183 L60.8775944,29.8425821 C60.8775944,30.0781427 60.9139414,30.2955832 60.9502883,30.4949037 C61.241064,31.6002265 62.2042585,32.3612684 63.3491877,32.3612684 C65.0393214,32.3612684 66.0206893,30.984145 66.0206893,28.9728199 C66.0206893,27.2151755 65.0938418,25.7112118 63.4037082,25.7112118 C62.3132993,25.7112118 61.2955844,26.4903737 60.9866353,27.6862967 C60.9321148,27.8856172 60.8775944,28.1211778 60.8775944,28.3386183 Z M68.9937369,37 L68.9937369,27.5050963 C68.9937369,26.3816535 68.95739,25.4756512 68.921043,24.6421291 L70.356748,24.6421291 L70.4294419,26.1460929 L70.4657889,26.1460929 C71.1200341,25.0770102 72.1559225,24.4428086 73.5916275,24.4428086 C75.7179247,24.4428086 77.3171909,26.2366931 77.3171909,28.9003398 C77.3171909,32.0532276 75.390802,33.6115515 73.3190253,33.6115515 C72.1559225,33.6115515 71.1382076,33.1041903 70.6111767,32.2344281 L70.5748297,32.2344281 L70.5748297,37 L68.9937369,37 Z M70.5748297,28.3386183 L70.5748297,29.8425821 C70.5748297,30.0781427 70.6111767,30.2955832 70.6475237,30.4949037 C70.9382993,31.6002265 71.9014938,32.3612684 73.0464231,32.3612684 C74.7365567,32.3612684 75.7179247,30.984145 75.7179247,28.9728199 C75.7179247,27.2151755 74.7910772,25.7112118 73.1009435,25.7112118 C72.0105347,25.7112118 70.9928198,26.4903737 70.6838706,27.6862967 C70.6293502,27.8856172 70.5748297,28.1211778 70.5748297,28.3386183 Z M81.3368973,32.8142695 C81.9911426,33.2491506 83.2814597,33.5934315 84.4627359,33.5934315 C87.3523192,33.5934315 88.7516772,31.9626274 88.7516772,30.0781427 C88.7516772,28.2842582 87.6976154,27.2876557 85.6258386,26.4903737 C83.9357049,25.8380521 83.1905923,25.2763307 83.1905923,24.1347678 C83.1905923,23.3012458 83.8266641,22.3046433 85.4986243,22.3046433 C86.6072066,22.3046433 87.4250132,22.6670442 87.8248297,22.8844847 L88.2609933,21.5979615 C87.7157889,21.2899207 86.8071148,21 85.5531447,21 C83.1724188,21 81.591326,22.4133635 81.591326,24.3159683 C81.591326,26.0373726 82.8271226,27.0702152 84.8262055,27.7768969 C86.4799922,28.4110985 87.1342375,29.0634202 87.1342375,30.204983 C87.1342375,31.4371461 86.1892165,32.2887882 84.5717768,32.2887882 C83.4813679,32.2887882 82.4454796,31.9263873 81.7367138,31.4915062 L81.3368973,32.8142695 Z M90.5252751,22.5402039 L90.5252751,24.6421291 L89.1622641,24.6421291 L89.1622641,25.8561721 L90.5252751,25.8561721 L90.5252751,30.6398641 C90.5252751,31.6727067 90.6888365,32.4518686 91.1431735,32.9229898 C91.5248166,33.3578709 92.1245414,33.5934315 92.8696541,33.5934315 C93.4875524,33.5934315 93.9782364,33.5028313 94.2871856,33.3759909 L94.2144917,32.180068 C94.0145834,32.2344281 93.7056342,32.2887882 93.2876442,32.2887882 C92.3971436,32.2887882 92.0881945,31.6727067 92.0881945,30.585504 L92.0881945,25.8561721 L94.378053,25.8561721 L94.378053,24.6421291 L92.0881945,24.6421291 L92.0881945,22.1234428 L90.5252751,22.5402039 Z M99.1502751,24.4428086 C101.676389,24.4428086 103.384696,26.2729332 103.384696,28.9546999 C103.384696,32.198188 101.131185,33.6115515 99.0048873,33.6115515 C96.6241614,33.6115515 94.7886399,31.8720272 94.7886399,29.0996602 C94.7886399,26.1642129 96.7150288,24.4428086 99.1502751,24.4428086 Z M99.1139282,25.6387316 C97.2238862,25.6387316 96.4060796,27.3782559 96.4060796,29.0453001 C96.4060796,30.9660249 97.5146619,32.4156285 99.0775812,32.4156285 C100.604154,32.4156285 101.749083,30.984145 101.749083,29.00906 C101.749083,27.5232163 101.00397,25.6387316 99.1139282,25.6387316 Z M104.758477,33.412231 L106.33957,33.412231 L106.33957,28.7372593 C106.33957,28.4654587 106.375917,28.211778 106.412264,27.9943375 C106.630346,26.7984145 107.429979,25.9467724 108.556735,25.9467724 C108.774817,25.9467724 108.938378,25.9648924 109.101939,26.0011325 L109.101939,24.4971687 C108.956551,24.4609287 108.829337,24.4428086 108.647602,24.4428086 C107.575367,24.4428086 106.612172,25.1857305 106.212356,26.3635334 L106.139662,26.3635334 L106.085141,24.6421291 L104.685783,24.6421291 C104.740304,25.4575311 104.758477,26.3454134 104.758477,27.3782559 L104.758477,33.412231 Z M116.94548,29.3171008 L110.766496,29.3171008 C110.802843,31.4733862 112.184028,32.3612684 113.783294,32.3612684 C114.928223,32.3612684 115.618815,32.1619479 116.21854,31.9082673 L116.491143,33.0498301 C115.927765,33.3035108 114.96457,33.5934315 113.565212,33.5934315 C110.857364,33.5934315 109.239924,31.817667 109.239924,29.1721404 C109.239924,26.5266138 110.802843,24.4428086 113.365304,24.4428086 C116.236714,24.4428086 117,26.9614949 117,28.5741789 C117,28.9003398 116.963653,29.1540204 116.94548,29.3171008 Z M110.78467,28.1755379 L115.455254,28.1755379 C115.473428,27.1608154 115.037264,25.5843715 113.23809,25.5843715 C111.62065,25.5843715 110.911884,27.0702152 110.78467,28.1755379 Z" id="App-Store" fill="#FFFFFF"></path>
            <path d="M51.28,11.608 L54.296,11.608 L54.296,16.432 L54.768,16.448 L54.72,18.296 L54.176,18.296 L54.128,17 L50.728,17 L50.68,18.296 L50.136,18.296 L50.088,16.448 L50.496,16.432 C50.696,16.064 50.896,15.672 51.024,15.248 C51.208,14.624 51.28,13.904 51.28,12.976 L51.28,11.608 Z M51.928,12.184 L51.928,13.2 C51.928,14.064 51.848,14.792 51.656,15.4 C51.544,15.776 51.376,16.136 51.216,16.424 L53.6,16.424 L53.6,12.184 L51.928,12.184 Z M57.836,13.04 C58.948,13.04 59.7,13.848 59.7,15.032 C59.7,16.464 58.708,17.088 57.772,17.088 C56.724,17.088 55.916,16.32 55.916,15.096 C55.916,13.8 56.764,13.04 57.836,13.04 Z M57.82,13.568 C56.988,13.568 56.628,14.336 56.628,15.072 C56.628,15.92 57.116,16.56 57.804,16.56 C58.476,16.56 58.98,15.928 58.98,15.056 C58.98,14.4 58.652,13.568 57.82,13.568 Z M63.848,16.328 C63.648,16.416 63.384,16.52 62.984,16.52 C62.216,16.52 61.64,15.968 61.64,15.072 C61.64,14.264 62.12,13.608 63.008,13.608 C63.392,13.608 63.656,13.696 63.824,13.792 L63.984,13.248 C63.792,13.152 63.424,13.048 63.008,13.048 C61.744,13.048 60.928,13.912 60.928,15.104 C60.928,16.288 61.688,17.08 62.856,17.08 C63.376,17.08 63.784,16.952 63.968,16.856 L63.848,16.328 Z M65.044,13.128 L65.044,13.688 L66.252,13.688 L66.252,17 L66.948,17 L66.948,13.688 L68.156,13.688 L68.156,13.128 L65.044,13.128 Z M69.048,13.128 L70.48,16.696 C70.512,16.784 70.528,16.84 70.528,16.88 C70.528,16.92 70.504,16.976 70.472,17.048 C70.312,17.408 70.072,17.68 69.88,17.832 C69.672,18.008 69.44,18.12 69.264,18.176 L69.44,18.768 C69.616,18.736 69.96,18.616 70.304,18.312 C70.784,17.896 71.128,17.216 71.632,15.888 L72.688,13.128 L71.944,13.128 L71.176,15.4 C71.08,15.68 71,15.976 70.928,16.208 L70.912,16.208 C70.848,15.976 70.752,15.672 70.664,15.416 L69.816,13.128 L69.048,13.128 Z M73.932,13.128 L73.932,17 L74.628,17 L74.628,13.688 L76.428,13.688 L76.428,17 L77.132,17 L77.132,13.128 L73.932,13.128 Z M78.88,13.128 L78.88,17 L79.576,17 L79.576,15.248 L81.416,15.248 L81.416,17 L82.112,17 L82.112,13.128 L81.416,13.128 L81.416,14.688 L79.576,14.688 L79.576,13.128 L78.88,13.128 Z M85.524,13.04 C86.636,13.04 87.388,13.848 87.388,15.032 C87.388,16.464 86.396,17.088 85.46,17.088 C84.412,17.088 83.604,16.32 83.604,15.096 C83.604,13.8 84.452,13.04 85.524,13.04 Z M85.508,13.568 C84.676,13.568 84.316,14.336 84.316,15.072 C84.316,15.92 84.804,16.56 85.492,16.56 C86.164,16.56 86.668,15.928 86.668,15.056 C86.668,14.4 86.34,13.568 85.508,13.568 Z M91.196,17 L91.196,13.176 C91.468,13.128 91.972,13.088 92.428,13.088 C93.076,13.088 94.148,13.192 94.148,14.056 C94.148,14.536 93.78,14.832 93.34,14.928 L93.34,14.944 C93.908,15.024 94.324,15.344 94.324,15.904 C94.324,16.92 93.044,17.048 92.284,17.048 C91.852,17.048 91.404,17.016 91.196,17 Z M91.868,13.608 L91.868,14.752 L92.396,14.752 C92.916,14.752 93.452,14.6 93.452,14.144 C93.452,13.76 93.116,13.576 92.412,13.576 C92.18,13.576 92.036,13.592 91.868,13.608 Z M91.86,15.216 L91.86,16.536 C92.06,16.56 92.204,16.568 92.428,16.568 C92.9,16.568 93.604,16.456 93.604,15.896 C93.604,15.336 93.044,15.216 92.372,15.216 L91.86,15.216 Z" id="Доступно-в" fill="#FFFFFF"></path>
        </g>
    </g>
</svg>