<?xml version="1.0" encoding="UTF-8"?>
<svg width="20px" height="20px" viewBox="0 0 20 20" version="1.1" xmlns="http://www.w3.org/2000/svg" xmlns:xlink="http://www.w3.org/1999/xlink">
    <!-- Generator: Sketch 50 (54983) - http://www.bohemiancoding.com/sketch -->
    <title>Slice 1</title>
    <desc>Created with Sketch.</desc>
    <defs></defs>
    <g id="Page-1" stroke="none" stroke-width="1" fill="none" fill-rule="evenodd">
        <path d="M9,7 L11,7 L11,5 L9,5 L9,7 Z M10,18 C5.59,18 2,14.41 2,10 C2,5.59 5.59,2 10,2 C14.41,2 18,5.59 18,10 C18,14.41 14.41,18 10,18 Z M10,4.4408921e-16 C4.4771525,-1.77635684e-15 4.4408921e-16,4.4771525 0,10 C-1.33226763e-15,12.6521649 1.0535684,15.195704 2.92893219,17.0710678 C4.80429597,18.9464316 7.3478351,20 10,20 C12.6521649,20 15.195704,18.9464316 17.0710678,17.0710678 C18.9464316,15.195704 20,12.6521649 20,10 C20,7.3478351 18.9464316,4.80429597 17.0710678,2.92893219 C15.195704,1.0535684 12.6521649,2.22044605e-16 10,0 Z M9,15 L11,15 L11,9 L9,9 L9,15 Z" id="info-copy-11" fill="#D6D6D6" fill-rule="nonzero"></path>
    </g>
</svg>