<?xml version="1.0" encoding="UTF-8"?>
<svg width="140px" height="45px" viewBox="0 0 140 45" version="1.1" xmlns="http://www.w3.org/2000/svg" xmlns:xlink="http://www.w3.org/1999/xlink">
    <!-- Generator: Sketch 50 (54983) - http://www.bohemiancoding.com/sketch -->
    <title>googleplaya</title>
    <desc>Created with Sketch.</desc>
    <defs></defs>
    <g id="Page-1" stroke="none" stroke-width="1" fill="none" fill-rule="evenodd">
        <g id="googleplaya">
            <rect id="Rectangle-8" fill="#3F3F3F" x="0" y="0" width="140" height="45" rx="3"></rect>
            <path d="M14.644745,33.9650748 C14.2542029,33.8598787 14,33.4721398 14,32.8721315 L14,13.0667399 C14,12.5110408 14.2152373,12.1362622 14.5564301,12 L14.5564301,12 L24.2892072,23.0372633 L14.644745,33.9650748 L14.644745,33.9650748 Z M15.9845317,33.5446698 L27.6997237,26.9048922 L24.8463222,23.6690486 L15.9845317,33.5446698 L15.9845317,33.5446698 Z M27.7803956,19.0815167 L16.2284674,12.5327498 L24.8632139,22.3868759 L27.7803956,19.0815167 L27.7803956,19.0815167 Z M28.5641845,19.5258452 L33.0895939,22.0912915 C33.946426,22.577028 33.9542618,23.36003 33.0895939,23.8500947 L28.4496961,26.479833 L25.4233025,23.026059 L28.5641845,19.5258452 L28.5641845,19.5258452 Z" id="google-play" fill="#FFFFFF"></path>
            <path d="M50.6548266,17 C51.6201421,17 52.3096532,16.5297533 52.3096532,15.87373 C52.3096532,15.275762 51.7455077,14.9680697 51.3380694,14.9332366 C51.7705809,14.8635704 52.2469703,14.5616836 52.2469703,14.0449927 C52.2469703,13.394775 51.5574593,13 50.6548266,13 C49.9590472,13 49.3760969,13.2612482 49.0564145,13.6095791 L49.4325115,14.0333817 C49.7333891,13.754717 50.1596323,13.6037736 50.5858755,13.6037736 C51.0998746,13.6037736 51.5135813,13.7895501 51.5135813,14.149492 C51.5135813,14.5036284 51.1061429,14.6603774 50.5733389,14.6603774 L49.7333891,14.6603774 L49.7333891,15.2583454 L50.5733389,15.2583454 C51.2127037,15.2583454 51.5825324,15.4208999 51.5825324,15.8040639 C51.5825324,16.1640058 51.2252403,16.3962264 50.6297534,16.3962264 C50.1847054,16.3962264 49.6644379,16.2162554 49.3949018,15.9259797 L49,16.3730044 C49.2820727,16.7213353 49.908901,17 50.6548266,17 Z M56.81028,16.9303338 L55.9765984,16.9303338 L55.6694526,16.1872279 L53.7513581,16.1872279 L53.4442123,16.9303338 L52.6105307,16.9303338 L54.2528207,13.0580552 L55.16799,13.0580552 L56.81028,16.9303338 Z M55.4625992,15.5892598 L54.7104053,13.743106 L53.9582115,15.5892598 L55.4625992,15.5892598 Z M58.0012537,16.9303338 L58.0012537,13.6560232 L60.1324697,13.6560232 L60.1324697,13.0580552 L57.2678646,13.0580552 L57.2678646,16.9303338 L58.0012537,16.9303338 Z M61.5240284,16.9303338 L60.7906394,16.9303338 L60.7906394,13.0580552 L62.6272461,13.0580552 C63.5048057,13.0580552 63.9937317,13.6153846 63.9937317,14.2714078 C63.9937317,14.9274311 63.4985374,15.4847605 62.6272461,15.4847605 L61.5240284,15.4847605 L61.5240284,16.9303338 Z M62.5269536,14.8867925 C62.9406603,14.8867925 63.2415378,14.6429608 63.2415378,14.2714078 C63.2415378,13.8998549 62.9406603,13.6560232 62.5269536,13.6560232 L61.5240284,13.6560232 L61.5240284,14.8867925 L62.5269536,14.8867925 Z M65.1032177,17 C65.8178019,17 66.1374843,16.6690856 66.3944839,16.2046444 L68.1370664,13.0580552 L67.3033849,13.0580552 L66.1500209,15.3164006 L64.9966569,13.0580552 L64.1629753,13.0580552 L65.7363142,15.9027576 C65.5357292,16.2626996 65.3915587,16.3962264 65.0530715,16.3962264 C64.8524864,16.3962264 64.6581697,16.2975327 64.5077309,16.1756168 L64.244463,16.7329463 C64.3760969,16.8606676 64.7271208,17 65.1032177,17 Z M69.9548684,17 C70.9201839,17 71.6096949,16.5297533 71.6096949,15.87373 C71.6096949,15.275762 71.0455495,14.9680697 70.6381112,14.9332366 C71.0706226,14.8635704 71.5470121,14.5616836 71.5470121,14.0449927 C71.5470121,13.394775 70.857501,13 69.9548684,13 C69.259089,13 68.6761387,13.2612482 68.3564563,13.6095791 L68.7325533,14.0333817 C69.0334308,13.754717 69.459674,13.6037736 69.8859173,13.6037736 C70.3999164,13.6037736 70.8136231,13.7895501 70.8136231,14.149492 C70.8136231,14.5036284 70.4061847,14.6603774 69.8733807,14.6603774 L69.0334308,14.6603774 L69.0334308,15.2583454 L69.8733807,15.2583454 C70.5127455,15.2583454 70.8825742,15.4208999 70.8825742,15.8040639 C70.8825742,16.1640058 70.5252821,16.3962264 69.9297952,16.3962264 C69.4847472,16.3962264 68.9644797,16.2162554 68.6949436,15.9259797 L68.3000418,16.3730044 C68.5821145,16.7213353 69.2089427,17 69.9548684,17 Z M73.0576682,16.9303338 L75.2390305,14.1669086 L75.2390305,16.9303338 L75.9724196,16.9303338 L75.9724196,13.0580552 L75.2202257,13.0580552 L73.0827413,15.7460087 L73.0827413,13.0580552 L72.3493523,13.0580552 L72.3493523,16.9303338 L73.0576682,16.9303338 Z M78.5925616,16.9303338 L78.5925616,13.6560232 L79.8587547,13.6560232 L79.8587547,13.0580552 L76.5929795,13.0580552 L76.5929795,13.6560232 L77.8591726,13.6560232 L77.8591726,16.9303338 L78.5925616,16.9303338 Z M83.3439198,16.9303338 L83.3439198,16.3323657 L81.2127037,16.3323657 L81.2127037,15.2583454 L83.3000418,15.2583454 L83.3000418,14.6603774 L81.2127037,14.6603774 L81.2127037,13.6560232 L83.3439198,13.6560232 L83.3439198,13.0580552 L80.4793147,13.0580552 L80.4793147,16.9303338 L83.3439198,16.9303338 Z M89.3489344,16.9303338 L89.3489344,13.0580552 L88.6155453,13.0580552 L88.6155453,14.6429608 L86.4404513,14.6429608 L86.4404513,13.0580552 L85.7070623,13.0580552 L85.7070623,16.9303338 L86.4404513,16.9303338 L86.4404513,15.2409289 L88.6155453,15.2409289 L88.6155453,16.9303338 L89.3489344,16.9303338 Z M94,16.9303338 L93.1663184,16.9303338 L92.8591726,16.1872279 L90.9410781,16.1872279 L90.6339323,16.9303338 L89.8002507,16.9303338 L91.4425407,13.0580552 L92.35771,13.0580552 L94,16.9303338 Z M92.6523193,15.5892598 L91.9001254,13.743106 L91.1479315,15.5892598 L92.6523193,15.5892598 Z" id="ЗАГРУЗИТЕ-НА" fill="#FFFFFF"></path>
            <path d="M94.5651681,31.6996409 L93.7892662,32.4556045 C93.6099531,32.5573593 93.4316014,32.6754942 93.2537305,32.7593798 C92.7148296,33.0120295 92.1667949,33.0755643 91.6798131,33.0755643 C91.1615837,33.0755643 90.3491462,33.0408187 89.5203638,32.4218517 C88.3690101,31.5844842 87.8656834,30.1450261 87.8656834,28.8907121 C87.8656834,26.2937312 89.9131221,25.020059 91.5831859,25.020059 C92.1667949,25.020059 92.766268,25.1709539 93.2537305,25.4891238 C94.0642451,26.0425706 94.2738443,26.7618033 94.3901815,27.1469824 L90.5765326,28.7378318 L89.3275902,28.8380975 C89.731886,30.9675027 91.126971,32.205933 92.6686793,32.205933 C93.4388124,32.205933 94.010403,31.9463342 94.5348819,31.6787935 C94.5348819,31.6787935 94.6401623,31.6222079 94.5651681,31.6996409 L94.5651681,31.6996409 Z M92.2643835,27.4641595 L89.3112453,28.7874682 C89.2949004,28.4866711 89.2622106,28.185874 89.2622106,27.9034424 C89.2622106,26.0936962 90.4789439,25.5725131 91.126971,25.5725131 C92.0019037,25.5725131 92.7350204,26.3453531 92.7350204,27.014453 C92.7350204,27.2477445 92.5739751,27.3480102 92.2643835,27.4641595 Z M86.5912622,31.5700896 C86.5912622,32.220824 86.7037536,32.3220824 87.2368856,32.373208 C87.5147489,32.4069608 87.7916506,32.4218517 88.065668,32.4556045 L87.4657142,32.8244036 L84.6067995,32.8244036 C84.9817706,32.3220824 85.0461888,32.2719495 85.0461888,31.9373996 L85.0461888,31.5636369 L85.0399392,21.6045724 L83.7775363,21.6045724 L84.9928275,21 L87.3128413,21 C86.8099954,21.3007971 86.6595262,21.4839557 86.5951081,22.0701626 L86.5912622,31.5700896 Z M82.1574687,25.8420392 C82.5300362,26.1582236 83.3073802,26.8293089 83.3073802,28.1019884 C83.3073802,29.3424042 82.6300285,29.927122 81.9469079,30.4805688 C81.7373087,30.6984729 81.4921352,30.9347426 81.4921352,31.3000672 C81.4921352,31.6708517 81.7373087,31.8718795 81.9137374,32.0217817 L82.49975,32.488861 C83.2121952,33.1098134 83.8616645,33.6791439 83.8616645,34.835674 C83.8616645,36.4111361 82.384855,38 79.5942043,38 C77.2434236,38 76.1069725,36.8439662 76.1069725,35.6045432 C76.1069725,35.0014599 76.3978156,34.147216 77.3573571,33.5620018 C78.363049,32.9271512 79.7254442,32.8422728 80.4551958,32.7926363 C80.2273287,32.488861 79.9672525,32.1706911 79.9672525,31.6514935 C79.9672525,31.3675728 80.0499385,31.1983124 80.12974,30.9987737 C79.9523498,31.0161465 79.7735174,31.0340156 79.6110299,31.0340156 C77.8904892,31.0340156 76.9179678,29.7087214 76.9179678,28.4027855 C76.9179678,27.6324272 77.2583263,26.7776869 77.957311,26.1582236 C78.8822398,25.3719817 79.9850396,25.2364741 80.8614145,25.2364741 L84.2044266,25.2364741 L83.1650835,25.8420392 L82.1574687,25.8420392 Z M81.0080378,33.2780811 C80.874875,33.260212 80.7950735,33.260212 80.6345089,33.260212 C80.4874048,33.260212 79.6110299,33.2929721 78.932236,33.528249 C78.573129,33.6637566 77.5352281,34.064323 77.5352281,35.2541096 C77.5352281,36.4414143 78.6558149,37.2976437 80.3893354,37.2976437 C81.9469079,37.2976437 82.7737674,36.5267891 82.7737674,35.4888902 C82.7737674,34.6346463 82.2387124,34.183947 81.0080378,33.2780811 L81.0080378,33.2780811 Z M81.4743481,30.0953896 C81.2176371,30.3604485 80.7801708,30.5644544 80.3734713,30.5644544 C78.9798285,30.5644544 78.3462234,28.704079 78.3462234,27.5822944 C78.3462234,27.1469824 78.4284286,26.6942976 78.7029267,26.3453531 C78.9615606,26.0083214 79.4172948,25.7904172 79.8379355,25.7904172 C81.1863895,25.7904172 81.8820091,27.6666764 81.8820091,28.8713539 C81.8820091,29.1746328 81.8493193,29.7087214 81.4743481,30.0953896 Z M72.0995885,33.0408187 C69.5209407,33.0408187 68.1412391,30.9675027 68.1412391,29.0902508 C68.1412391,26.8968145 69.8757211,25.020059 72.342839,25.020059 C74.7277517,25.020059 76.2213868,26.9479401 76.2213868,28.972116 C76.2213868,30.9491372 74.7450581,33.0408187 72.0995885,33.0408187 Z M74.1282786,31.6857426 C73.7547496,32.220824 73.1072033,32.5380011 72.4726367,32.5380011 C70.5064418,32.5380011 69.7141951,29.8084908 69.7141951,28.1536103 C69.7141951,27.4309031 69.8271671,26.6942976 70.4607722,26.1080907 C70.8492039,25.7556717 71.3881048,25.539753 71.9231598,25.539753 C73.9350242,25.539753 74.6157411,28.353149 74.6157411,29.8283454 C74.6157411,30.4805688 74.5205561,31.1496686 74.1282786,31.6857426 Z M63.466118,33.0408187 C60.8869895,33.0408187 59.5096916,30.9675027 59.5096916,29.0902508 C59.5096916,26.8968145 61.2446543,25.020059 63.7108107,25.020059 C66.0942812,25.020059 67.5864741,26.9479401 67.5864741,28.972116 C67.5864741,30.9491372 66.1120683,33.0408187 63.466118,33.0408187 Z M65.4952888,31.6857426 C65.1207984,32.220824 64.4742135,32.5380011 63.8410891,32.5380011 C61.8782594,32.5380011 61.0826475,29.8084908 61.0826475,28.1536103 C61.0826475,27.4309031 61.1951388,26.6942976 61.8297054,26.1080907 C62.2190985,25.7556717 62.7522306,25.539753 63.2892085,25.539753 C65.2991501,25.539753 65.9817899,28.353149 65.9817899,29.8283454 C65.9817899,30.4805688 65.8846819,31.1496686 65.4952888,31.6857426 Z M58.4785209,32.4595755 L56.3036882,32.9738095 C55.422506,33.1172589 54.6312207,33.2433356 53.7933044,33.2433356 C49.5984347,33.2433356 48,30.0551841 48,27.559958 C48,24.5127741 50.2647296,21.6874653 54.1432774,21.6874653 C54.9638874,21.6874653 55.7532498,21.8120529 56.4724252,22.0145698 C57.6122414,22.3451488 58.1453734,22.7526643 58.4785209,22.9914158 L57.2151565,24.2303425 L56.6825052,24.353441 L57.0622837,23.7285176 C56.5479002,23.2098163 55.6022998,22.2523285 53.8077263,22.2523285 C51.4083917,22.2523285 49.5984347,24.1355368 49.5984347,26.8849017 C49.5984347,29.8377763 51.6651027,32.615434 54.9797516,32.615434 C55.9537151,32.615434 56.4551188,32.4134135 56.9103723,32.2247949 L56.9103723,29.6933341 L54.6139143,29.8208999 L55.8311284,29.1458437 L59.0539574,29.1458437 L58.6597569,29.5374755 C58.5535151,29.6307921 58.5390931,29.6625595 58.5092877,29.7876434 C58.4934236,29.9305965 58.4785209,30.3852667 58.4785209,30.5450962 L58.4785209,32.4595755 Z M99.2412507,31.7711174 L99.2412507,36.0373734 L98.4206407,36.0373734 L98.4206407,25.1813776 L99.2412507,25.1813776 L99.2412507,26.4178224 C99.7758249,25.618675 100.752673,24.9853134 101.887201,24.9853134 C103.922141,24.9853134 105.292708,26.579141 105.292708,29.1021636 C105.292708,31.6083097 103.922141,33.2353937 101.887201,33.2353937 C100.81613,33.2353937 99.856588,32.6650705 99.2412507,31.7711174 Z M104.411045,29.1021636 C104.411045,31.0067155 103.451023,32.4695028 101.74875,32.4695028 C100.69162,32.4695028 99.68064,31.5805133 99.2412507,30.8310024 L99.2412507,27.355952 C99.68064,26.6079302 100.69162,25.7502117 101.74875,25.7502117 C103.451023,25.7502117 104.411045,27.2005898 104.411045,29.1021636 Z M106.413295,22.1838302 L107.233424,22.1838302 L107.233424,33.039826 L106.413295,33.039826 L106.413295,22.1838302 Z M116.44137,35.3355134 C116.616837,35.4164209 116.916333,35.4660574 117.106223,35.4660574 C117.608107,35.4660574 117.957599,35.2541096 118.271518,34.5055914 L118.870029,33.1053461 L115.637586,25.1813776 L116.5529,25.1813776 L119.325763,32.048089 L122.071706,25.1813776 L123,25.1813776 L119.057515,34.7681684 C118.648412,35.7559345 118.004711,36.2309556 117.120645,36.2309556 C116.85528,36.2309556 116.505307,36.1823119 116.300515,36.1172881 L116.44137,35.3355134 Z M114.044439,33.0164968 C113.989635,32.7439925 113.948292,32.5037519 113.918006,32.3032205 C113.893008,32.1031855 113.878586,31.8986832 113.878586,31.6907063 C113.597358,32.1170837 113.198831,32.4719846 112.689735,32.751438 C112.180159,33.0328769 111.696062,33.1708663 111.032171,33.1708663 C110.232713,33.1708663 109.612088,32.9678531 109.169333,32.5558702 C108.728021,32.1443838 108.505923,31.586966 108.505923,30.8816316 C108.505923,30.1772898 108.827532,29.6054775 109.468829,29.1681801 C110.110126,28.7288972 110.938909,28.5104967 111.964791,28.5104967 L113.878586,28.5104967 L113.878586,27.534147 C113.878586,26.9717656 113.693024,26.5295045 113.322379,26.2088528 C112.950292,25.8877048 112.428217,25.7253934 111.751346,25.7253934 C111.132644,25.7253934 110.630759,25.8738065 110.248577,26.1626909 C109.86976,26.4575316 109.678909,26.8228561 109.678909,27.2631318 L108.83907,27.2631318 L108.821764,27.2209408 C108.791478,26.6272884 109.054438,26.1066017 109.61353,25.6568951 C110.170218,25.2076849 110.899489,24.9818389 111.797016,24.9818389 C112.691658,24.9818389 113.415641,25.2042103 113.961272,25.6479605 C114.506423,26.0872434 114.779959,26.7220941 114.779959,27.5520161 L114.779959,31.4286257 C114.779959,31.7070863 114.792939,31.9761161 114.82659,32.2381967 C114.861203,32.5007737 114.916487,32.7628544 114.990039,33.0164968 L114.044439,33.0164968 Z M111.132644,32.3990189 C111.829705,32.3990189 112.330628,32.2381967 112.842608,31.9200269 C113.351223,31.6038424 113.69735,31.1913633 113.878586,30.6920202 L113.878586,29.183071 L111.955657,29.183071 C111.221098,29.183071 110.612972,29.3508424 110.134643,29.6893632 C109.655353,30.0268913 109.412584,30.4353996 109.412584,30.9104207 C109.412584,31.3586382 109.566418,31.7170136 109.872164,31.9885252 C110.178871,32.263015 110.598069,32.3990189 111.132644,32.3990189 L111.132644,32.3990189 Z" id="Fill-1" fill="#FFFFFF"></path>
        </g>
    </g>
</svg>