<?xml version="1.0" encoding="UTF-8"?>
<svg width="134px" height="48px" viewBox="0 0 134 48" version="1.1" xmlns="http://www.w3.org/2000/svg" xmlns:xlink="http://www.w3.org/1999/xlink">
    <!-- Generator: Sketch 50 (54983) - http://www.bohemiancoding.com/sketch -->
    <title>worki_logo_landing_big</title>
    <desc>Created with Sketch.</desc>
    <defs>
        <path d="M127.772801,17.1335758 C127.772801,18.8038788 129.032021,20.0116364 130.820113,20.0116364 C132.557362,20.0116364 133.867426,18.8038788 133.867426,17.1335758 C133.867426,15.4632727 132.557362,14.2555152 130.820113,14.2555152 C129.032021,14.2555152 127.772801,15.4632727 127.772801,17.1335758 Z M112.435504,14.8465455 L112.435504,33.9393939 L118.20273,33.9393939 L118.20273,29.0312727 L120.544404,33.9393939 L126.866163,33.9393939 L122.987766,26.4358788 L126.589135,20.4998788 L120.746355,20.4998788 L118.20273,25.0996364 L118.20273,14.8465455 L112.435504,14.8465455 Z M79.0913617,15.5660606 L77.3032695,25.7934545 L75.2124894,15.5660606 L69.5716596,15.5660606 L67.884305,25.6649697 L66.2221348,15.5660606 L59.4979007,15.5660606 L63.6785106,33.9393939 L70.5286667,33.9393939 L72.5937872,24.2259394 L74.6840922,33.9393939 L81.1061135,33.9393939 L85.2867234,15.5660606 L79.0913617,15.5660606 Z M84.5055319,27.2067879 L84.5055319,27.4123636 C84.5055319,31.9607273 87.8807163,34.2991515 92.0865106,34.2991515 C96.292305,34.2991515 99.6670142,31.7551515 99.6670142,27.2324848 L99.6670142,27.0269091 C99.6670142,22.6070303 96.3174894,20.0887273 92.111695,20.0887273 C87.8555319,20.0887273 84.5055319,22.7612121 84.5055319,27.2067879 Z M90.3487872,27.2067879 L90.3487872,27.0012121 C90.3487872,25.1510303 90.9280284,24.3801212 92.111695,24.3801212 C93.3452553,24.3801212 93.824234,25.2281212 93.824234,27.078303 L93.824234,27.2838788 C93.824234,29.1340606 93.3205461,30.0334545 92.111695,30.0334545 C90.8272908,30.0334545 90.3487872,29.1597576 90.3487872,27.2067879 Z M106.74383,23.3008485 L106.74383,20.4998788 L100.976603,20.4998788 L100.976603,33.9393939 L106.74383,33.9393939 L106.74383,28.0804848 C106.74383,26.5386667 108.128972,25.6135758 110.949624,25.8191515 L110.949624,20.345697 C110.865043,20.342303 110.780936,20.3403636 110.698255,20.3403636 C108.92917,20.3403636 107.537851,21.1408485 106.74383,23.3008485 Z M127.949092,33.9393939 L133.69066,33.9393939 L133.69066,20.4998788 L127.949092,20.4998788 L127.949092,33.9393939 Z" id="path-1"></path>
    </defs>
    <g id="Page-1" stroke="none" stroke-width="1" fill="none" fill-rule="evenodd">
        <g id="worki_logo_landing_big">
            <g id="Group-5">
                <path d="M46.6832716,24.1276606 C46.6832716,37.2486303 36.2588319,47.8852364 23.3995837,47.8852364 C10.5403355,47.8852364 0.115895745,37.2486303 0.115895745,24.1276606 C0.115895745,11.0066909 10.5403355,0.370084848 23.3995837,0.370084848 C36.2588319,0.370084848 46.6832716,11.0066909 46.6832716,24.1276606" id="Fill-1" fill="#FEFEFE"></path>
                <path d="M39.9073383,7.37517576 L30.767778,35.6830545 L25.6311113,35.6830545 L23.5579128,29.3693576 L21.4847142,35.6830545 L16.3480475,35.6830545 L9.54018227,14.8345697 L16.5338418,14.8345697 L18.9163809,22.1174788 L21.2989199,14.8345697 L25.8169057,14.8345697 L28.1994447,22.1174788 L34.2883667,3.12790303 C31.0386291,1.36984242 27.3341468,0.370084848 23.3996787,0.370084848 C10.5404305,0.370084848 0.11599078,11.0066909 0.11599078,24.1276606 C0.11599078,37.2486303 10.5404305,47.8852364 23.3996787,47.8852364 C36.258927,47.8852364 46.6833667,37.2486303 46.6833667,24.1276606 C46.6833667,17.5904485 44.0946007,11.6709333 39.9073383,7.37517576" id="Fill-3" fill="#FF2D55"></path>
            </g>
            <mask id="mask-2" fill="white">
                <use xlink:href="#path-1"></use>
            </mask>
            <use id="Clip-7" fill="#000000" xlink:href="#path-1"></use>
        </g>
    </g>
</svg>